<!DOCTYPE svg PUBLIC "-//W3C//DTD SVG 1.1//EN" "http://www.w3.org/Graphics/SVG/1.1/DTD/svg11.dtd">
<!-- Uploaded to: SVG Repo, www.svgrepo.com, Transformed by: SVG Repo Mixer Tools -->
<svg fill="#000000" width="800px" height="800px" viewBox="0 0 24 24" id="nut" data-name="Flat Color" xmlns="http://www.w3.org/2000/svg" class="icon flat-color">
<g id="SVGRepo_bgCarrier" stroke-width="0"/>
<g id="SVGRepo_tracerCarrier" stroke-linecap="round" stroke-linejoin="round"/>
<g id="SVGRepo_iconCarrier">
<path id="primary" d="M21.74,11,17.81,4a2,2,0,0,0-1.75-1H7.94A2,2,0,0,0,6.19,4L2.26,11a2,2,0,0,0,0,2l3.93,7a2,2,0,0,0,1.75,1h8.12a2,2,0,0,0,1.75-1l3.93-7A2,2,0,0,0,21.74,11ZM12,15a3,3,0,1,1,3-3A3,3,0,0,1,12,15Z" style="fill: #FB1372;"/>
</g>
</svg>